/* XPM */
static char *result[] = {
/* columns rows colors chars-per-pixel */
"50 50 4 1 ",
"  c #4D9262",
". c #3E734E",
"X c #7AB055",
"o c white",
/* pixels */
"                   . .                            ",
"                    .                             ",
"   X                               X              ",
" X X                             X X              ",
" X X                             X X              ",
" X                               X                ",
"                                                  ",
"                       X                          ",
"                      X X                         ",
"                       X                          ",
"                                                  ",
".                               .                 ",
" .                             . .                ",
".                               .                 ",
"                                                  ",
"                                                  ",
"                           X                      ",
"                           XX                     ",
"                X          XX  X                X ",
"                X           X.XX                X ",
"                X X         .XX.                X ",
"                X X          ..                 X ",
"                  X                               ",
"                                                  ",
"                                                  ",
"          X                               X       ",
"         X X                             X X      ",
"          X                               X       ",
"                                                  ",
"                                                  ",
"                                                  ",
"                    .                             ",
"                   . .                            ",
"                    .                             ",
"   X                               X              ",
" X X                             X X              ",
" X X                             X X              ",
" X                               X                ",
"                                                  ",
"                       X                          ",
"                      X X                         ",
"                       X                          ",
"                                                  ",
".                               .                 ",
" .                             . .                ",
".                               .                 ",
"                                                  ",
"                                                  ",
"                           X                      ",
"                           XX                     "
};
